<?xml version="1.0" encoding="UTF-8"?>
<!DOCTYPE svg PUBLIC "-//W3C//DTD SVG 1.1//EN" "http://www.w3.org/Graphics/SVG/1.1/DTD/svg11.dtd">
<!-- Creator: CorelDRAW -->
<svg xmlns="http://www.w3.org/2000/svg" xml:space="preserve" width="6.82666in" height="6.82666in" style="shape-rendering:geometricPrecision; text-rendering:geometricPrecision; image-rendering:optimizeQuality; fill-rule:evenodd; clip-rule:evenodd"
viewBox="0 0 6.82666 6.82666"
 xmlns:xlink="http://www.w3.org/1999/xlink">
 <defs>
  <style type="text/css">
   <![CDATA[
    .fil2 {fill:none}
    .fil5 {fill:#005EAC}
    .fil3 {fill:#009B3A}
    .fil8 {fill:#231F20}
    .fil1 {fill:#7DD0FA}
    .fil0 {fill:#B2E5FC}
    .fil7 {fill:#F7FAFD}
    .fil4 {fill:#FFE52B}
    .fil6 {fill:white}
   ]]>
  </style>
   <clipPath id="id0">
    <path d="M3.41333 0c1.88513,0 3.41333,1.5282 3.41333,3.41333 0,1.88513 -1.5282,3.41333 -3.41333,3.41333 -1.88513,0 -3.41333,-1.5282 -3.41333,-3.41333 0,-1.88513 1.5282,-3.41333 3.41333,-3.41333z"/>
   </clipPath>
 </defs>
 <g id="Layer_x0020_1">
  <metadata id="CorelCorpID_0Corel-Layer"/>
  <path class="fil0" d="M3.41333 0c1.88513,0 3.41333,1.5282 3.41333,3.41333 0,1.88513 -1.5282,3.41333 -3.41333,3.41333 -1.88513,0 -3.41333,-1.5282 -3.41333,-3.41333 0,-1.88513 1.5282,-3.41333 3.41333,-3.41333z"/>
  <g style="clip-path:url(#id0)">
   <g id="_684150920">
    <g>
     <polygon id="_6825922561" class="fil1" points="5.28,2.29163 9.06627,6.0779 9.06627,8.3213 5.28,4.53503 "/>
     <polygon id="_682592928" class="fil1" points="5.28,4.53503 9.06627,8.3213 5.33293,8.3213 1.54667,4.53503 "/>
    </g>
    <polygon id="_684150776" class="fil1" points="1.54667,2.29163 5.28,2.29163 5.28,4.53503 1.54667,4.53503 "/>
   </g>
  </g>
  <path class="fil2" d="M3.41333 0c1.88513,0 3.41333,1.5282 3.41333,3.41333 0,1.88513 -1.5282,3.41333 -3.41333,3.41333 -1.88513,0 -3.41333,-1.5282 -3.41333,-3.41333 0,-1.88513 1.5282,-3.41333 3.41333,-3.41333z"/>
  <rect class="fil3" x="1.54666" y="2.29163" width="3.73333" height="2.2434"/>
  <rect class="fil4" transform="matrix(0.907483 -0.515598 0.907483 0.515598 1.91598 3.41333)" width="1.65" height="1.65"/>
  <path class="fil5" d="M3.95553 3.41333c0,0.299559 -0.242752,0.542378 -0.542197,0.542378 -0.299441,0 -0.542193,-0.242819 -0.542193,-0.542374 0,-0.299543 0.242752,-0.542378 0.542193,-0.542378 0.299449,0 0.542197,0.242835 0.542197,0.542374z"/>
  <path class="fil6" d="M3.95302 3.50551l-0.0227992 0.0872165c0,0 -0.363772,-0.388917 -1.04857,-0.30822l0.031122 -0.0906457c0,0 0.605803,-0.100217 1.04025,0.31165z"/>
  <polygon class="fil7" points="3.58797,3.22244 3.59328,3.2392 3.6105,3.2392 3.59657,3.24957 3.60191,3.26633 3.58797,3.25597 3.57403,3.26633 3.57936,3.24957 3.56543,3.2392 3.58264,3.2392 "/>
  <polygon class="fil7" points="3.80238,3.58502 3.80771,3.60178 3.82493,3.60178 3.81099,3.61214 3.81632,3.6289 3.80238,3.61854 3.78845,3.6289 3.79378,3.61214 3.77985,3.60178 3.79707,3.60178 "/>
  <polygon class="fil7" points="3.42693,3.63543 3.43225,3.65219 3.44946,3.65219 3.43553,3.66256 3.44086,3.67931 3.42693,3.66896 3.41299,3.67931 3.41833,3.66256 3.40439,3.65219 3.42161,3.65219 "/>
  <polygon class="fil7" points="3.70953,3.74381 3.71401,3.75795 3.72854,3.75795 3.71678,3.76669 3.72127,3.78082 3.70953,3.77208 3.69778,3.78082 3.70228,3.76669 3.69053,3.75795 3.70504,3.75795 "/>
  <polygon class="fil7" points="3.78685,3.66917 3.79135,3.6833 3.80585,3.6833 3.79411,3.69204 3.79859,3.70617 3.78685,3.69743 3.77511,3.70617 3.7796,3.69204 3.76785,3.6833 3.78237,3.6833 "/>
  <polygon class="fil7" points="3.81138,3.63831 3.81587,3.65244 3.83039,3.65244 3.81864,3.66118 3.82312,3.67531 3.81138,3.66657 3.79964,3.67531 3.80413,3.66118 3.79238,3.65244 3.8069,3.65244 "/>
  <polygon class="fil7" points="3.5586,3.37799 3.56233,3.38976 3.57442,3.38976 3.56463,3.39704 3.56838,3.4088 3.5586,3.40153 3.54881,3.4088 3.55256,3.39704 3.54278,3.38976 3.55485,3.38976 "/>
  <polygon class="fil7" points="3.41925,3.47507 3.42356,3.48883 3.43751,3.48883 3.42622,3.49732 3.43055,3.51109 3.41925,3.50259 3.40796,3.51109 3.41227,3.49732 3.40099,3.48883 3.41492,3.48883 "/>
  <polygon class="fil7" points="3.22357,3.41418 3.22789,3.42793 3.24183,3.42793 3.23054,3.43644 3.23486,3.45019 3.22357,3.4417 3.21229,3.45019 3.2166,3.43644 3.20531,3.42793 3.21924,3.42793 "/>
  <polygon class="fil7" points="3.02365,3.51503 3.02908,3.53254 3.04663,3.53254 3.0324,3.54336 3.03786,3.56089 3.02365,3.55006 3.00943,3.56089 3.01486,3.54336 3.00063,3.53254 3.01819,3.53254 "/>
  <polygon class="fil7" points="2.97202,3.28903 2.97745,3.30655 2.995,3.30655 2.98078,3.31737 2.98623,3.3349 2.97202,3.32407 2.9578,3.3349 2.96323,3.31737 2.94902,3.30655 2.96657,3.30655 "/>
  <polygon class="fil7" points="3.21332,3.68242 3.21859,3.69917 3.23566,3.69917 3.22184,3.70955 3.22713,3.72631 3.21332,3.71595 3.19949,3.72631 3.20478,3.70955 3.19095,3.69917 3.20802,3.69917 "/>
  <polygon class="fil7" points="3.48406,3.53233 3.48839,3.54609 3.50232,3.54609 3.49102,3.55459 3.49535,3.56835 3.48406,3.55985 3.47278,3.56835 3.47709,3.55459 3.46579,3.54609 3.47974,3.54609 "/>
  <polygon class="fil7" points="3.59533,3.77195 3.59907,3.7837 3.61115,3.7837 3.60137,3.79098 3.60511,3.80275 3.59533,3.79548 3.58555,3.80275 3.58928,3.79098 3.57951,3.7837 3.59158,3.7837 "/>
  <polygon class="fil7" points="3.62831,3.69721 3.63206,3.70896 3.64413,3.70896 3.63435,3.71625 3.6381,3.72801 3.62831,3.72074 3.61853,3.72801 3.62227,3.71625 3.61249,3.70896 3.62457,3.70896 "/>
  <polygon class="fil7" points="3.37075,3.53016 3.37449,3.54192 3.38658,3.54192 3.37678,3.5492 3.38054,3.56096 3.37075,3.55369 3.36098,3.56096 3.36472,3.5492 3.35493,3.54192 3.36701,3.54192 "/>
  <polygon class="fil7" points="3.07563,3.49011 3.07874,3.50009 3.08876,3.50009 3.08064,3.50628 3.08376,3.51628 3.07563,3.51009 3.06753,3.51628 3.07062,3.50628 3.0625,3.50009 3.07253,3.50009 "/>
  <polygon class="fil7" points="3.70933,3.69721 3.71307,3.70896 3.72515,3.70896 3.71537,3.71625 3.71912,3.72801 3.70933,3.72074 3.69955,3.72801 3.70329,3.71625 3.6935,3.70896 3.70559,3.70896 "/>
  <polygon class="fil7" points="3.70939,3.78946 3.71263,3.7997 3.72314,3.7997 3.71463,3.80603 3.71789,3.81626 3.70939,3.80994 3.70087,3.81626 3.70412,3.80603 3.69562,3.7997 3.70613,3.7997 "/>
  <polygon class="fil7" points="3.13328,3.56717 3.13749,3.58076 3.15109,3.58076 3.14008,3.58915 3.14429,3.60274 3.13328,3.59435 3.12226,3.60274 3.12646,3.58915 3.11546,3.58076 3.12906,3.58076 "/>
  <polygon class="fil7" points="2.95502,3.56717 2.95922,3.58076 2.97282,3.58076 2.96182,3.58915 2.96603,3.60274 2.95502,3.59435 2.944,3.60274 2.9482,3.58915 2.9372,3.58076 2.9508,3.58076 "/>
  <polygon class="fil7" points="3.40918,3.57374 3.41244,3.58398 3.42294,3.58398 3.41444,3.59031 3.41769,3.60055 3.40918,3.59423 3.40067,3.60055 3.40393,3.59031 3.39542,3.58398 3.40592,3.58398 "/>
  <polygon class="fil7" points="3.11882,3.63863 3.12207,3.64886 3.13257,3.64886 3.12407,3.65519 3.12733,3.66543 3.11882,3.65911 3.1103,3.66543 3.11356,3.65519 3.10506,3.64886 3.11556,3.64886 "/>
  <polygon class="fil7" points="3.87467,3.59543 3.87792,3.60567 3.88844,3.60567 3.87993,3.612 3.88318,3.62222 3.87467,3.61591 3.86616,3.62222 3.86942,3.612 3.86091,3.60567 3.87141,3.60567 "/>
  <polygon class="fil7" points="3.74984,3.69721 3.75358,3.70896 3.76566,3.70896 3.75588,3.71625 3.75963,3.72801 3.74984,3.72074 3.74006,3.72801 3.7438,3.71625 3.73401,3.70896 3.74609,3.70896 "/>
  <polygon class="fil7" points="3.54939,3.69397 3.55313,3.70573 3.56521,3.70573 3.55543,3.713 3.55918,3.72477 3.54939,3.71751 3.53961,3.72477 3.54335,3.713 3.53357,3.70573 3.54565,3.70573 "/>
  <polygon class="fil7" points="3.42406,3.8119 3.4258,3.81751 3.43144,3.81751 3.42686,3.82098 3.42861,3.82659 3.42406,3.82312 3.41949,3.82659 3.42123,3.82098 3.41669,3.81751 3.42231,3.81751 "/>
  <path class="fil8" d="M2.95933 3.22909c0,-0.00492126 0.000787402,-0.00905906 0.00235039,-0.0124055 0.00117323,-0.00246063 0.00276378,-0.00467323 0.0047874,-0.00663386 0.00201969,-0.00195669 0.00423622,-0.00340551 0.00664567,-0.00435827 0.00320079,-0.00127165 0.00688976,-0.00190945 0.0110669,-0.00190945 0.00756693,-3.93701e-006 0.0136339,0.00220866 0.0181693,0.00662992 0.00454724,0.00441732 0.00682677,0.0105709 0.00682677,0.0184528 0,0.00780315 -0.00225984,0.0139173 -0.00677559,0.0183268 -0.00450394,0.00441732 -0.0105315,0.00661811 -0.0180748,0.00661811 -0.00764567,-3.93701e-006 -0.0137126,-0.00219291 -0.0182205,-0.00658268 -0.00451575,-0.0043937 -0.00677559,-0.0104331 -0.00677559,-0.0181378zm0.0106654 -0.000330709c0,0.00548819 0.00134646,0.00964173 0.00405118,0.0124724 0.0026811,0.00282677 0.0061063,0.00424016 0.0102598,0.00424016 0.00414173,0 0.00755512,-0.00139764 0.0102165,-0.00420472 0.00266142,-0.0028189 0.00398819,-0.00701969 0.00398819,-0.0126339 0,-0.00554724 -0.00129528,-0.00968504 -0.00388583,-0.0124213 -0.00258268,-0.00272835 -0.00602756,-0.00409449 -0.0103189,-0.00409449 -0.00428346,0 -0.00774803,0.00138976 -0.010374,0.00414173 -0.00262992,0.00276772 -0.00393701,0.00693307 -0.00393701,0.0125z"/>
  <path class="fil8" d="M3.51412 3.31346c0,-0.00492126 0.000775591,-0.00905906 0.00233465,-0.0124016 0.00116535,-0.00246457 0.00277559,-0.0046811 0.00479134,-0.0066378 0.00201575,-0.00195669 0.00423622,-0.00340945 0.00664173,-0.00435433 0.00320472,-0.00127953 0.00688976,-0.00191339 0.0110827,-0.00191339 0.00755512,0 0.013622,0.00220866 0.0181693,0.00662992 0.00453543,0.00442126 0.00681496,0.0105709 0.00681496,0.0184488 0,0.00781102 -0.00225984,0.0139213 -0.00676772,0.0183307 -0.00451575,0.00441339 -0.0105315,0.00661811 -0.0180827,0.00661811 -0.0076378,0 -0.0137165,-0.00219291 -0.0182087,-0.00658268 -0.00452756,-0.00438976 -0.00677559,-0.0104331 -0.00677559,-0.0181378zm0.0106417 -0.000330709c0,0.00548819 0.00135827,0.00964173 0.00405906,0.0124685 0.00268504,0.00283071 0.0061063,0.00424409 0.0102638,0.00424409 0.00414961,0 0.00756299,-0.00140157 0.0102165,-0.00420866 0.00266142,-0.00281102 0.00398819,-0.00701575 0.00398819,-0.012626 0,-0.00555118 -0.00129528,-0.00968898 -0.00387795,-0.0124213 -0.00259055,-0.00273228 -0.00603543,-0.00409843 -0.0103268,-0.00409843 -0.0042874,0 -0.00775197,0.00138976 -0.0103622,0.00414567 -0.00263386,0.00275984 -0.00396063,0.00693307 -0.00396063,0.0124961z"/>
  <path class="fil8" d="M3.02906 3.25207l0 -0.0505433 0.0255906 0c0.00642913,0 0.0111181,0.000448819 0.0140472,0.00135039 0.00290551,0.000913386 0.00523622,0.00252362 0.00699606,0.00483858 0.00175197,0.00232677 0.00263386,0.0049685 0.00263386,0.00796063 0,0.00378346 -0.00132677,0.00691732 -0.0039685,0.00938189 -0.00264567,0.00247244 -0.00660236,0.00401969 -0.0118701,0.00466929 0.00262205,0.00129134 0.00479921,0.00270866 0.0065,0.00424803 0.00170472,0.00153937 0.00401181,0.00428346 0.00692126,0.00821654l0.00735039 0.00987795 -0.014563 0 -0.00875197 -0.0110118c-0.00312598,-0.00394488 -0.00527559,-0.0064252 -0.00642913,-0.00744488 -0.00115354,-0.00102362 -0.00237008,-0.00173228 -0.00366535,-0.00210236 -0.0012874,-0.000389764 -0.00334646,-0.000574803 -0.0061378,-0.000574803l-0.00248031 -3.93701e-006 0 0.0211378 -0.0121732 0zm0.0121732 -0.0292244l0.00899213 0c0.00585433,0 0.00948819,-0.000204724 0.0109488,-0.000614173 0.00143701,-0.000413386 0.00257874,-0.00112205 0.00340157,-0.00212992 0.000830709,-0.00100787 0.00124409,-0.00226378 0.00124409,-0.00377559 0,-0.00170472 -0.000547244,-0.00307087 -0.00162992,-0.0041063 -0.00109449,-0.00104331 -0.00260236,-0.00169685 -0.00458661,-0.00198031 -0.000980315,-0.000114173 -0.00393701,-0.000169291 -0.00887402,-0.000169291l-0.00949606 0 0 0.0127756z"/>
  <path class="fil8" d="M3.44762 3.30751l0.0159094 -0.0479843 0.0243071 0.00806299c0.00608661,0.00201969 0.0103898,0.0039252 0.0128819,0.00570472 0.00248425,0.00177559 0.0041811,0.00403937 0.00513386,0.00679528 0.000944882,0.00275984 0.000933071,0.00554331 -1.1811e-005,0.00838189 -0.0011811,0.00359055 -0.00344094,0.00614961 -0.00672047,0.00765354 -0.00328346,0.00151575 -0.00752362,0.00174016 -0.0127323,0.000700787 0.00207874,0.00205118 0.00370866,0.00407874 0.00483071,0.0060748 0.0011378,0.002 0.00246063,0.0053189 0.00398031,0.00998031l0.00387008 0.0116929 -0.013811 -0.00458661 -0.00484252 -0.0132008c-0.00173228,-0.00473622 -0.00298031,-0.00776772 -0.00376772,-0.00909843 -0.000779528,-0.00133465 -0.00170472,-0.00238976 -0.00281496,-0.00314961 -0.00108268,-0.000771654 -0.00299213,-0.00160236 -0.00564173,-0.00248425l-0.00235039 -0.000771654 -0.00665354 0.0200591 -0.0115669 -0.00383071zm0.0207638 -0.0239055l0.00852756 0.00282677c0.00555906,0.00183858 0.00908268,0.00279528 0.0105906,0.00285827 0.0015,6.29921e-005 0.00279528,-0.000248031 0.00388976,-0.000948819 0.00111417,-0.000692913 0.0018937,-0.00175591 0.00237795,-0.00318504 0.000531496,-0.00162205 0.000444882,-0.00308661 -0.000259843,-0.00441339 -0.000700787,-0.00133071 -0.00193307,-0.00243701 -0.00371654,-0.00332677 -0.000909449,-0.000417323 -0.00368898,-0.00140157 -0.00838583,-0.00295669l-0.00901575 -0.00298425 -0.00400787 0.0121299z"/>
  <path class="fil8" d="M3.63231 3.37853l0.0236378 -0.0446929 0.022622 0.0119803c0.00566929,0.003 0.00960236,0.00557874 0.0117677,0.00775984 0.00214961,0.00215748 0.00345276,0.00466929 0.00394094,0.00754331 0.000464567,0.00287795 0,0.00562205 -0.00140157,0.00826378 -0.00176772,0.00334252 -0.00441339,0.0055 -0.00789764,0.00643307 -0.00349213,0.000948819 -0.00771654,0.000472441 -0.0126693,-0.00140945 0.0017126,0.00237008 0.00298031,0.00462992 0.00375591,0.0067874 0.000795276,0.00216535 0.00153937,0.00565748 0.00226772,0.0105l0.00188976 0.0121693 -0.012874 -0.00680315 -0.00258268 -0.0138228c-0.000933071,-0.00495276 -0.00165354,-0.00814961 -0.00220866,-0.00959055 -0.000547244,-0.00144882 -0.00127559,-0.00262992 -0.00225984,-0.0035748 -0.000948819,-0.000940945 -0.00267323,-0.0020748 -0.00515354,-0.00337008l-0.00218504 -0.00116535 -0.00988583 0.018685 -0.0107638 -0.00569291zm0.0244252 -0.0201339l0.00794094 0.00419291c0.00518504,0.00273622 0.00850787,0.00426378 0.00997244,0.00456693 0.00147244,0.000314961 0.00280709,0.000216535 0.00400394,-0.000283465 0.00120472,-0.000507874 0.00215354,-0.00142913 0.0028622,-0.00275591 0.000783465,-0.00150787 0.000952756,-0.0029685 0.000476378,-0.0043937 -0.000476378,-0.00142913 -0.00151575,-0.00272441 -0.00311811,-0.00388976 -0.000830709,-0.000566929 -0.00340945,-0.00199606 -0.00777953,-0.00430315l-0.0083937 -0.00444488 -0.00596457 0.011311z"/>
  <path class="fil8" d="M3.09705 3.20228l0.0210315 0c0.00474016,0 0.00835827,0.000326772 0.0108386,0.000968504 0.00335433,0.000877953 0.00620866,0.00244488 0.00859843,0.00469291 0.00237795,0.00224803 0.00420079,0.00499213 0.00543701,0.00825197 0.00124803,0.00324803 0.00187402,0.00727165 0.00187402,0.0120354 0,0.00419291 -0.000586614,0.00781102 -0.00175197,0.0108465 -0.0014252,0.00370472 -0.00345276,0.00670079 -0.0061063,0.00899606 -0.00199606,0.00174016 -0.00468898,0.00308268 -0.00808268,0.00406299 -0.00253937,0.000716535 -0.00593307,0.0010748 -0.010189,0.0010748l-0.0216496 0 0 -0.0509291zm0.0114921 0.0086063l0 0.0337087 0.00862992 0c0.00323228,0 0.00555118,-0.000165354 0.00697638,-0.000488189 0.00187402,-0.000413386 0.00343307,-0.00112205 0.00466929,-0.00211417 0.00122835,-0.000992126 0.00223622,-0.00263386 0.00301969,-0.00491339 0.000787402,-0.00227165 0.00117323,-0.00538583 0.00117323,-0.00932283 0,-0.00393307 -0.000385827,-0.00695276 -0.00117323,-0.00905906 -0.000779528,-0.0021063 -0.00187402,-0.00374409 -0.00327165,-0.0049252 -0.00140945,-0.00118504 -0.00319291,-0.00198425 -0.00534646,-0.00239764 -0.00161024,-0.000322835 -0.00477953,-0.000488189 -0.00948031,-0.000488189l-0.00519685 0z"/>
  <polygon class="fil8" points="3.16288,3.25491 3.165,3.20403 3.20715,3.20579 3.2068,3.21439 3.17615,3.21311 3.17569,3.22439 3.20415,3.22559 3.20379,3.2342 3.17532,3.233 3.17474,3.24679 3.20653,3.24811 3.20617,3.25672 "/>
  <polygon class="fil8" points="3.68935,3.40877 3.71309,3.3637 3.75042,3.38337 3.74639,3.39098 3.71926,3.37668 3.71399,3.38669 3.73921,3.39997 3.7352,3.4076 3.70997,3.39431 3.70355,3.40651 3.7317,3.42135 3.72769,3.42896 "/>
  <polygon class="fil8" points="3.3188,3.27569 3.32669,3.23411 3.36114,3.24065 3.35979,3.24767 3.33476,3.24291 3.33301,3.25214 3.35628,3.25656 3.35494,3.2636 3.33167,3.25918 3.32953,3.27044 3.35551,3.27537 3.35418,3.2824 "/>
  <polygon class="fil8" points="3.22483,3.26111 3.23071,3.21052 3.24625,3.21233 3.25152,3.24791 3.26472,3.21446 3.28034,3.21628 3.27446,3.26687 3.26483,3.26576 3.26943,3.22592 3.25455,3.26456 3.24459,3.2634 3.23913,3.2224 3.23446,3.26222 "/>
  <path class="fil8" d="M3.85296 3.49088c0.00183465,-0.00456693 0.00411024,-0.00811024 0.00680315,-0.010622 0.00200394,-0.00185433 0.00431496,-0.00329921 0.00691732,-0.00437402 0.00260236,-0.00106299 0.00520472,-0.00158268 0.00779528,-0.00156299 0.00343701,1.9685e-005 0.00710236,0.000795276 0.0109921,0.0023622 0.00700787,0.00282283 0.0118189,0.0071378 0.0143819,0.0129449 0.00255118,0.00577953 0.00236614,0.0123425 -0.00057874,0.0196457 -0.00290551,0.00724016 -0.00728346,0.0120709 -0.0131142,0.0144803 -0.00583465,0.00240945 -0.0122441,0.00222047 -0.0192441,-0.000598425 -0.00709843,-0.00286614 -0.0119094,-0.00715748 -0.0144409,-0.0129134 -0.00255118,-0.00575984 -0.00240157,-0.0122008 0.000488189,-0.0193622zm0.0100079 0.00367717c-0.00205906,0.0051063 -0.00235433,0.00946063 -0.000905512,0.0130945 0.00144882,0.00361811 0.00409449,0.00618898 0.00794094,0.00775984 0.00385039,0.00153937 0.00753543,0.00151969 0.0110472,-8.26772e-005 0.00352756,-0.00161811 0.0063189,-0.00502362 0.00841732,-0.010248 0.00206299,-0.00514567 0.00240945,-0.00946063 0.00104331,-0.0129528 -0.00138583,-0.00350787 -0.00407087,-0.00605512 -0.00805118,-0.00765748 -0.00398031,-0.00159843 -0.00770866,-0.00161024 -0.0111614,-2.75591e-005 -0.00347244,0.00157874 -0.00625591,0.00494882 -0.00833071,0.0101142z"/>
  <path class="fil8" d="M3.79878 3.45199l0.00975984 0.00556299c-0.00129528,0.00304724 -0.00151575,0.00577165 -0.00069685,0.00820472 0.000822835,0.00241732 0.00266142,0.00462598 0.00553937,0.00661417 0.00304724,0.00211417 0.00573228,0.0031378 0.0080315,0.00309449 0.00233071,-3.93701e-005 0.004,-0.000799213 0.00501181,-0.00230709 0.000661417,-0.000933071 0.000913386,-0.00197638 0.000720472,-0.00309843 -0.000192913,-0.00111417 -0.000901575,-0.00247244 -0.00216929,-0.00409449 -0.000877953,-0.00107087 -0.003,-0.00340157 -0.00630709,-0.00697638 -0.00431496,-0.00458661 -0.00694882,-0.00837402 -0.00788189,-0.0113701 -0.00131496,-0.00421654 -0.000850394,-0.00791339 0.00137008,-0.0111102 0.0014252,-0.00207874 0.00342913,-0.00352756 0.00603543,-0.00439764 0.00259055,-0.000850394 0.0054685,-0.000889764 0.00866929,-6.29921e-005 0.0031811,0.000814961 0.00655118,0.00245276 0.0101457,0.00494488 0.00585433,0.00406299 0.00948031,0.00823228 0.010878,0.0125354 0.00139764,0.00430709 0.000889764,0.00836614 -0.00155906,0.0122362l-0.00965354 -0.00627165c0.00104331,-0.00235827 0.00120472,-0.00446457 0.000535433,-0.00629528 -0.000685039,-0.00183465 -0.00233858,-0.00365748 -0.005,-0.00548819 -0.00273622,-0.00190551 -0.00520472,-0.00289764 -0.00744488,-0.00299213 -0.00140945,-3.93701e-005 -0.00248819,0.000448819 -0.00322047,0.0015 -0.00065748,0.00096063 -0.000759843,0.0021063 -0.00030315,0.00343307 0.000566929,0.00169291 0.00285827,0.00459843 0.00677559,0.00870866 0.00391732,0.00410236 0.00666142,0.00744488 0.00815354,0.00995669 0.00150787,0.0025315 0.00227953,0.00509449 0.00229921,0.00767717 3.93701e-005,0.00260236 -0.00084252,0.00519685 -0.00261417,0.00774803 -0.00161024,0.00233858 -0.00385039,0.00399213 -0.00675591,0.005 -0.00287402,0.000996063 -0.00603543,0.00102756 -0.00944882,0.000133858 -0.00341339,-0.000909449 -0.00714961,-0.00276378 -0.0112087,-0.00560236 -0.0059252,-0.00409055 -0.00964567,-0.0084252 -0.0111614,-0.0129921 -0.00152756,-0.00455512 -0.00103543,-0.00932677 0.0015,-0.0142913z"/>
  <path class="fil8" d="M3.74794 3.42024l0.00975197 0.00555118c-0.00129528,0.00304331 -0.00151969,0.00577165 -0.000700787,0.0082126 0.000822835,0.00240945 0.00267323,0.00462598 0.00555118,0.00660236 0.00304724,0.00211417 0.00572047,0.0031378 0.00802756,0.00311024 0.00232283,-4.33071e-005 0.00399213,-0.000811024 0.00500394,-0.00232283 0.000661417,-0.000933071 0.00092126,-0.00196063 0.000720472,-0.00309449 -0.000181102,-0.00111811 -0.000901575,-0.00247244 -0.00216535,-0.00409449 -0.000870079,-0.00106299 -0.00298819,-0.00340157 -0.00631102,-0.0069685 -0.00430315,-0.00458661 -0.00693701,-0.00838583 -0.00788189,-0.0113701 -0.00131102,-0.00421654 -0.000846457,-0.00792126 0.00137795,-0.011122 0.00142126,-0.00206693 0.00343701,-0.00352362 0.00603937,-0.00438583 0.00257874,-0.000862205 0.0054685,-0.000889764 0.00866535,-5.90551e-005 0.00317323,0.000807087 0.00654331,0.00244882 0.0101496,0.00494094 0.00584252,0.00406299 0.0094685,0.00823622 0.0108661,0.0125276 0.00140945,0.00429528 0.000893701,0.00836614 -0.00154724,0.0122323l-0.00965354 -0.00626772c0.00103543,-0.00235827 0.00120866,-0.00446457 0.000527559,-0.00629921 -0.000688976,-0.00183071 -0.00234252,-0.00365354 -0.005,-0.00549606 -0.00272441,-0.00189764 -0.00519685,-0.00287795 -0.00743701,-0.00297638 -0.00141732,-5.51181e-005 -0.00249213,0.000444882 -0.00322047,0.00149606 -0.000665354,0.00096063 -0.000771654,0.0021063 -0.000314961,0.00343307 0.00057874,0.00169291 0.00286614,0.00459843 0.00677559,0.00872047 0.00392913,0.00409055 0.00666535,0.00743307 0.00816142,0.00994488 0.0015,0.0025315 0.00227953,0.00509449 0.00229134,0.00768504 3.93701e-005,0.0026063 -0.00084252,0.00518504 -0.00260236,0.00773622 -0.00162205,0.00234252 -0.00385039,0.00399213 -0.00675591,0.00501181 -0.00288583,0.000984252 -0.00603543,0.00101575 -0.00946063,0.000125984 -0.00341339,-0.000913386 -0.0071378,-0.00276378 -0.0112008,-0.00559449 -0.00592126,-0.00410236 -0.00964961,-0.00843307 -0.0111693,-0.013 -0.00151969,-0.00455906 -0.00102362,-0.00932677 0.00151181,-0.0142795z"/>
  <path class="fil8" d="M3.59933 3.34481l0.00355512 -0.00765354 0.0211142 0.00984252 -0.00843307 0.0181063c-0.00292126,0.000901575 -0.00666535,0.00113386 -0.0112323,0.000720472 -0.00456693,-0.000405512 -0.00885039,-0.00155118 -0.0128543,-0.00341339 -0.00510236,-0.00238189 -0.0090748,-0.00544094 -0.0119055,-0.00919685 -0.00287795,-0.00375591 -0.00438583,-0.00792913 -0.00455906,-0.0125197 -0.000173228,-0.00459449 0.000759843,-0.00907874 0.00278346,-0.013437 0.00220866,-0.00472835 0.00521654,-0.00843701 0.00906693,-0.011122 0.00383858,-0.00268504 0.00827953,-0.00403937 0.0132717,-0.00409055 0.00383071,-6.29921e-005 0.00806693,0.000996063 0.0127126,0.00316929 0.00603937,0.00282283 0.0102087,0.00619291 0.0125276,0.0101299 0.0022874,0.00393701 0.00297638,0.00820472 0.00200394,0.0127913l-0.0105512 -0.00281496c0.000334646,-0.00254331 -0.000141732,-0.00488189 -0.00141732,-0.00705906 -0.00131496,-0.00216142 -0.00338189,-0.00389764 -0.00620866,-0.00522441 -0.00431496,-0.00200394 -0.00830315,-0.00232677 -0.0120315,-0.000964567 -0.00372441,0.00135827 -0.00674409,0.00452756 -0.0090748,0.00952756 -0.00251969,0.00538976 -0.00312598,0.0100394 -0.00179134,0.0139409 0.00130709,0.00389764 0.00405118,0.00682283 0.00822441,0.00876772 0.00205512,0.000972441 0.00430315,0.00154724 0.00674409,0.00177165 0.00242126,0.000212598 0.00462992,0.000122047 0.00662205,-0.000251969l0.00270472 -0.00577165 -0.0112717 -0.00524803z"/>
  <path class="fil8" d="M3.39079 3.29042l0.0165787 -0.0482992 0.0155354 0.00533465c0.00588583,0.00201969 0.00963386,0.00357087 0.0112638,0.00467323 0.00249213,0.00167323 0.00425197,0.0040315 0.00527559,0.00710236 0.00101575,0.00306693 0.000870079,0.00652756 -0.000456693,0.010374 -0.00101969,0.00297244 -0.00241732,0.00527953 -0.00416142,0.00694094 -0.00177165,0.00165354 -0.00367717,0.00277953 -0.0057126,0.00336614 -0.00204331,0.000598425 -0.00398031,0.000783465 -0.00581496,0.000570866 -0.0024685,-0.000330709 -0.0058937,-0.00124803 -0.0102756,-0.00275197l-0.00629921 -0.00216142 -0.00623622 0.0181772 -0.00969685 -0.00332677zm0.0234646 -0.0367992l-0.00472835 0.0137835 0.00530709 0.0018189c0.0038189,0.00131102 0.00646063,0.00192913 0.00792126,0.0018622 0.00145669,-6.69291e-005 0.00275197,-0.000511811 0.00383858,-0.00134646 0.00110236,-0.000830709 0.00192126,-0.00195669 0.00240945,-0.00339764 0.000606299,-0.00175984 0.000586614,-0.00340157 -6.29921e-005,-0.00490551 -0.000625984,-0.00150394 -0.00165748,-0.00265354 -0.0031378,-0.00348819 -0.00108268,-0.00061811 -0.00337402,-0.00151969 -0.00686614,-0.00272047l-0.0046811 -0.0016063z"/>
 </g>
</svg>
